<svg xmlns="http://www.w3.org/2000/svg" xmlns:xlink="http://www.w3.org/1999/xlink" width="2000" zoomAndPan="magnify" viewBox="0 0 1500 1499.999933" height="2000" preserveAspectRatio="xMidYMid meet" version="1.0"><defs><g/><clipPath id="5576232ff5"><path d="M 0.238281 0.71875 L 708.480469 0.71875 L 708.480469 401 L 0.238281 401 Z M 0.238281 0.71875 " clip-rule="nonzero"/></clipPath><clipPath id="b5e5d88b12"><rect x="0" width="709" y="0" height="401"/></clipPath><clipPath id="2c810eed0c"><rect x="0" width="595" y="0" height="61"/></clipPath><clipPath id="d9ea15bff3"><rect x="0" width="709" y="0" height="438"/></clipPath></defs><rect x="-150" width="1800" fill="#ffffff" y="-149.999993" height="1799.99992" fill-opacity="1"/><rect x="-150" width="1800" fill="#ffffff" y="-149.999993" height="1799.99992" fill-opacity="1"/><g transform="matrix(1, 0, 0, 1, 396, 510)"><g clip-path="url(#d9ea15bff3)"><g clip-path="url(#5576232ff5)"><g transform="matrix(1, 0, 0, 1, 0, 0.000000000000113687)"><g clip-path="url(#b5e5d88b12)"><g fill="#34535c" fill-opacity="1"><g transform="translate(0.694007, 302.24524)"><g><path d="M 6.28125 -286.765625 L 119.484375 -286.765625 L 119.484375 -284.25 C 113.617188 -282.738281 109.425781 -279.257812 106.90625 -273.8125 C 104.394531 -268.363281 103.140625 -260.941406 103.140625 -251.546875 L 103.140625 -5.03125 L 117.71875 -5.03125 C 127.613281 -5.03125 136.921875 -6.957031 145.640625 -10.8125 C 154.359375 -14.675781 162.238281 -19.664062 169.28125 -25.78125 C 176.332031 -31.90625 182.457031 -38.65625 187.65625 -46.03125 C 192.851562 -53.40625 196.832031 -60.613281 199.59375 -67.65625 C 202.363281 -74.707031 203.75 -81 203.75 -86.53125 L 206.265625 -86.53125 L 206.265625 0 L 6.28125 0 L 6.28125 -2.515625 C 12.15625 -4.023438 16.347656 -7.546875 18.859375 -13.078125 C 21.378906 -18.609375 22.640625 -25.988281 22.640625 -35.21875 L 22.640625 -251.546875 C 22.640625 -260.941406 21.378906 -268.363281 18.859375 -273.8125 C 16.347656 -279.257812 12.15625 -282.738281 6.28125 -284.25 Z M 6.28125 -286.765625 "/></g></g></g><g fill="#34535c" fill-opacity="1"><g transform="translate(209.228563, 302.24524)"><g><path d="M 119.484375 0 L 6.28125 0 L 6.28125 -2.515625 C 12.15625 -4.023438 16.347656 -7.546875 18.859375 -13.078125 C 21.378906 -18.609375 22.640625 -25.988281 22.640625 -35.21875 L 22.640625 -251.546875 C 22.640625 -260.941406 21.378906 -268.363281 18.859375 -273.8125 C 16.347656 -279.257812 12.15625 -282.738281 6.28125 -284.25 L 6.28125 -286.765625 L 153.4375 -286.765625 C 169.707031 -286.765625 184.335938 -283.070312 197.328125 -275.6875 C 210.328125 -268.3125 220.640625 -257.957031 228.265625 -244.625 C 235.898438 -231.289062 239.71875 -215.738281 239.71875 -197.96875 C 239.71875 -177.34375 235.523438 -160.109375 227.140625 -146.265625 C 218.753906 -132.429688 207.179688 -122.035156 192.421875 -115.078125 C 177.671875 -108.117188 160.65625 -104.640625 141.375 -104.640625 L 103.140625 -104.640625 L 103.140625 -35.21875 C 103.140625 -25.988281 104.394531 -18.609375 106.90625 -13.078125 C 109.425781 -7.546875 113.617188 -4.023438 119.484375 -2.515625 Z M 103.140625 -281.984375 L 103.140625 -110.9375 L 107.90625 -110.9375 C 117.632812 -110.9375 125.644531 -113.195312 131.9375 -117.71875 C 138.226562 -122.25 143.175781 -128.539062 146.78125 -136.59375 C 150.382812 -144.644531 152.898438 -153.953125 154.328125 -164.515625 C 155.753906 -175.078125 156.46875 -186.3125 156.46875 -198.21875 C 156.46875 -208.78125 155.710938 -218.96875 154.203125 -228.78125 C 152.691406 -238.59375 149.960938 -247.394531 146.015625 -255.1875 C 142.078125 -262.988281 136.671875 -269.28125 129.796875 -274.0625 C 122.921875 -278.84375 114.035156 -281.484375 103.140625 -281.984375 Z M 103.140625 -281.984375 "/></g></g></g><g fill="#34535c" fill-opacity="1"><g transform="translate(456.250192, 302.24524)"><g><path d="M 6.28125 -284.25 L 6.28125 -286.765625 L 151.4375 -286.765625 C 168.539062 -286.765625 182.789062 -283.785156 194.1875 -277.828125 C 205.59375 -271.878906 214.144531 -263.957031 219.84375 -254.0625 C 225.550781 -244.164062 228.40625 -233.265625 228.40625 -221.359375 C 228.40625 -208.953125 226.097656 -198.640625 221.484375 -190.421875 C 216.867188 -182.203125 210.453125 -175.742188 202.234375 -171.046875 C 194.023438 -166.359375 184.507812 -163.003906 173.6875 -160.984375 C 162.875 -158.972656 151.179688 -157.96875 138.609375 -157.96875 C 153.023438 -154.945312 164.800781 -150.375 173.9375 -144.25 C 183.082031 -138.132812 190.421875 -131.007812 195.953125 -122.875 C 201.484375 -114.75 205.800781 -106.113281 208.90625 -96.96875 C 212.007812 -87.832031 214.566406 -78.691406 216.578125 -69.546875 C 218.585938 -60.410156 220.722656 -51.859375 222.984375 -43.890625 C 225.253906 -35.929688 228.359375 -29.015625 232.296875 -23.140625 C 236.242188 -17.273438 241.65625 -13.082031 248.53125 -10.5625 C 248.53125 -10.5625 247.984375 -9.804688 246.890625 -8.296875 C 245.804688 -6.785156 243.878906 -4.984375 241.109375 -2.890625 C 238.335938 -0.796875 234.4375 1.003906 229.40625 2.515625 C 224.375 4.023438 217.921875 4.78125 210.046875 4.78125 C 194.273438 4.78125 181.398438 2.519531 171.421875 -2 C 161.453125 -6.53125 153.738281 -12.609375 148.28125 -20.234375 C 142.832031 -27.867188 138.929688 -36.425781 136.578125 -45.90625 C 134.234375 -55.382812 132.726562 -65.238281 132.0625 -75.46875 C 131.394531 -85.695312 130.890625 -95.546875 130.546875 -105.015625 C 130.210938 -114.492188 129.375 -123.046875 128.03125 -130.671875 C 126.695312 -138.304688 124.140625 -144.382812 120.359375 -148.90625 C 116.585938 -153.4375 110.847656 -155.703125 103.140625 -155.703125 L 103.140625 -35.21875 C 103.140625 -25.988281 104.394531 -18.609375 106.90625 -13.078125 C 109.425781 -7.546875 113.617188 -4.023438 119.484375 -2.515625 L 119.484375 0 L 6.28125 0 L 6.28125 -2.515625 C 12.15625 -4.023438 16.347656 -7.546875 18.859375 -13.078125 C 21.378906 -18.609375 22.640625 -25.988281 22.640625 -35.21875 L 22.640625 -251.546875 C 22.640625 -260.941406 21.378906 -268.363281 18.859375 -273.8125 C 16.347656 -279.257812 12.15625 -282.738281 6.28125 -284.25 Z M 108.171875 -283.5 L 103.140625 -283.5 L 103.140625 -160.734375 L 112.1875 -160.734375 C 118.5625 -160.734375 124.472656 -162.660156 129.921875 -166.515625 C 135.367188 -170.378906 139.726562 -176.921875 143 -186.140625 C 146.269531 -195.367188 147.90625 -208.03125 147.90625 -224.125 C 147.90625 -234.351562 146.726562 -243.992188 144.375 -253.046875 C 142.03125 -262.109375 138.007812 -269.445312 132.3125 -275.0625 C 126.613281 -280.6875 118.566406 -283.5 108.171875 -283.5 Z M 108.171875 -283.5 "/></g></g></g></g></g></g><g transform="matrix(1, 0, 0, 1, 93, 377)"><g clip-path="url(#2c810eed0c)"><g fill="#3e614c" fill-opacity="1"><g transform="translate(2.295521, 45.640499)"><g><path d="M 10.796875 -5.875 L 20.828125 -5.875 L 20.828125 0 L 4.140625 0 L 4.140625 -32.03125 L 10.796875 -32.03125 Z M 10.796875 -5.875 "/></g></g></g><g fill="#3e614c" fill-opacity="1"><g transform="translate(29.142642, 45.640499)"><g><path d="M 22.71875 -26.171875 L 10.84375 -26.171875 L 10.84375 -18.90625 L 21.359375 -18.90625 L 21.359375 -13.125 L 10.84375 -13.125 L 10.84375 -5.875 L 22.71875 -5.875 L 22.71875 0 L 4.140625 0 L 4.140625 -32.03125 L 22.71875 -32.03125 Z M 22.71875 -26.171875 "/></g></g></g><g fill="#3e614c" fill-opacity="1"><g transform="translate(59.646578, 45.640499)"><g><path d="M 14.8125 0.4375 C 13.082031 0.4375 11.46875 0.234375 9.96875 -0.171875 C 8.476562 -0.578125 7.144531 -1.171875 5.96875 -1.953125 C 4.800781 -2.742188 3.835938 -3.71875 3.078125 -4.875 C 2.328125 -6.03125 1.828125 -7.359375 1.578125 -8.859375 L 8.15625 -10.375 C 8.625 -8.539062 9.445312 -7.179688 10.625 -6.296875 C 11.8125 -5.421875 13.242188 -4.984375 14.921875 -4.984375 C 15.859375 -4.984375 16.703125 -5.117188 17.453125 -5.390625 C 18.210938 -5.671875 18.8125 -6.085938 19.25 -6.640625 C 19.6875 -7.203125 19.894531 -7.914062 19.875 -8.78125 C 19.875 -9.5625 19.664062 -10.21875 19.25 -10.75 C 18.84375 -11.289062 18.289062 -11.753906 17.59375 -12.140625 C 16.90625 -12.523438 16.113281 -12.863281 15.21875 -13.15625 C 14.320312 -13.457031 13.382812 -13.753906 12.40625 -14.046875 C 11.46875 -14.347656 10.53125 -14.664062 9.59375 -15 C 8.664062 -15.332031 7.785156 -15.722656 6.953125 -16.171875 C 6.128906 -16.628906 5.394531 -17.175781 4.75 -17.8125 C 4.113281 -18.445312 3.609375 -19.203125 3.234375 -20.078125 C 2.867188 -20.960938 2.6875 -22.003906 2.6875 -23.203125 C 2.6875 -24.679688 2.96875 -25.992188 3.53125 -27.140625 C 4.101562 -28.285156 4.898438 -29.253906 5.921875 -30.046875 C 6.941406 -30.835938 8.132812 -31.4375 9.5 -31.84375 C 10.875 -32.257812 12.367188 -32.46875 13.984375 -32.46875 C 15.390625 -32.46875 16.769531 -32.316406 18.125 -32.015625 C 19.488281 -31.710938 20.75 -31.226562 21.90625 -30.5625 C 23.0625 -29.894531 24.046875 -29.023438 24.859375 -27.953125 C 25.679688 -26.890625 26.253906 -25.585938 26.578125 -24.046875 L 20.546875 -22.5625 C 20.046875 -24.101562 19.269531 -25.234375 18.21875 -25.953125 C 17.164062 -26.679688 15.890625 -27.046875 14.390625 -27.046875 C 13.492188 -27.046875 12.671875 -26.914062 11.921875 -26.65625 C 11.171875 -26.394531 10.566406 -26 10.109375 -25.46875 C 9.648438 -24.945312 9.421875 -24.273438 9.421875 -23.453125 C 9.421875 -22.785156 9.597656 -22.222656 9.953125 -21.765625 C 10.316406 -21.304688 10.8125 -20.914062 11.4375 -20.59375 C 12.070312 -20.269531 12.796875 -19.976562 13.609375 -19.71875 C 14.429688 -19.457031 15.296875 -19.191406 16.203125 -18.921875 C 17.179688 -18.628906 18.164062 -18.304688 19.15625 -17.953125 C 20.15625 -17.609375 21.101562 -17.195312 22 -16.71875 C 22.90625 -16.238281 23.71875 -15.65625 24.4375 -14.96875 C 25.15625 -14.28125 25.71875 -13.457031 26.125 -12.5 C 26.539062 -11.550781 26.75 -10.425781 26.75 -9.125 C 26.75 -7.601562 26.457031 -6.25 25.875 -5.0625 C 25.289062 -3.875 24.460938 -2.867188 23.390625 -2.046875 C 22.316406 -1.222656 21.050781 -0.601562 19.59375 -0.1875 C 18.144531 0.226562 16.550781 0.4375 14.8125 0.4375 Z M 14.8125 0.4375 "/></g></g></g><g fill="#3e614c" fill-opacity="1"><g transform="translate(93.474892, 45.640499)"><g><path d="M 14.8125 0.4375 C 13.082031 0.4375 11.46875 0.234375 9.96875 -0.171875 C 8.476562 -0.578125 7.144531 -1.171875 5.96875 -1.953125 C 4.800781 -2.742188 3.835938 -3.71875 3.078125 -4.875 C 2.328125 -6.03125 1.828125 -7.359375 1.578125 -8.859375 L 8.15625 -10.375 C 8.625 -8.539062 9.445312 -7.179688 10.625 -6.296875 C 11.8125 -5.421875 13.242188 -4.984375 14.921875 -4.984375 C 15.859375 -4.984375 16.703125 -5.117188 17.453125 -5.390625 C 18.210938 -5.671875 18.8125 -6.085938 19.25 -6.640625 C 19.6875 -7.203125 19.894531 -7.914062 19.875 -8.78125 C 19.875 -9.5625 19.664062 -10.21875 19.25 -10.75 C 18.84375 -11.289062 18.289062 -11.753906 17.59375 -12.140625 C 16.90625 -12.523438 16.113281 -12.863281 15.21875 -13.15625 C 14.320312 -13.457031 13.382812 -13.753906 12.40625 -14.046875 C 11.46875 -14.347656 10.53125 -14.664062 9.59375 -15 C 8.664062 -15.332031 7.785156 -15.722656 6.953125 -16.171875 C 6.128906 -16.628906 5.394531 -17.175781 4.75 -17.8125 C 4.113281 -18.445312 3.609375 -19.203125 3.234375 -20.078125 C 2.867188 -20.960938 2.6875 -22.003906 2.6875 -23.203125 C 2.6875 -24.679688 2.96875 -25.992188 3.53125 -27.140625 C 4.101562 -28.285156 4.898438 -29.253906 5.921875 -30.046875 C 6.941406 -30.835938 8.132812 -31.4375 9.5 -31.84375 C 10.875 -32.257812 12.367188 -32.46875 13.984375 -32.46875 C 15.390625 -32.46875 16.769531 -32.316406 18.125 -32.015625 C 19.488281 -31.710938 20.75 -31.226562 21.90625 -30.5625 C 23.0625 -29.894531 24.046875 -29.023438 24.859375 -27.953125 C 25.679688 -26.890625 26.253906 -25.585938 26.578125 -24.046875 L 20.546875 -22.5625 C 20.046875 -24.101562 19.269531 -25.234375 18.21875 -25.953125 C 17.164062 -26.679688 15.890625 -27.046875 14.390625 -27.046875 C 13.492188 -27.046875 12.671875 -26.914062 11.921875 -26.65625 C 11.171875 -26.394531 10.566406 -26 10.109375 -25.46875 C 9.648438 -24.945312 9.421875 -24.273438 9.421875 -23.453125 C 9.421875 -22.785156 9.597656 -22.222656 9.953125 -21.765625 C 10.316406 -21.304688 10.8125 -20.914062 11.4375 -20.59375 C 12.070312 -20.269531 12.796875 -19.976562 13.609375 -19.71875 C 14.429688 -19.457031 15.296875 -19.191406 16.203125 -18.921875 C 17.179688 -18.628906 18.164062 -18.304688 19.15625 -17.953125 C 20.15625 -17.609375 21.101562 -17.195312 22 -16.71875 C 22.90625 -16.238281 23.71875 -15.65625 24.4375 -14.96875 C 25.15625 -14.28125 25.71875 -13.457031 26.125 -12.5 C 26.539062 -11.550781 26.75 -10.425781 26.75 -9.125 C 26.75 -7.601562 26.457031 -6.25 25.875 -5.0625 C 25.289062 -3.875 24.460938 -2.867188 23.390625 -2.046875 C 22.316406 -1.222656 21.050781 -0.601562 19.59375 -0.1875 C 18.144531 0.226562 16.550781 0.4375 14.8125 0.4375 Z M 14.8125 0.4375 "/></g></g></g><g fill="#3e614c" fill-opacity="1"><g transform="translate(127.303206, 45.640499)"><g><path d="M 18.328125 0.4375 C 15.984375 0.4375 13.8125 0.0546875 11.8125 -0.703125 C 9.820312 -1.472656 8.085938 -2.578125 6.609375 -4.015625 C 5.128906 -5.460938 3.984375 -7.195312 3.171875 -9.21875 C 2.359375 -11.238281 1.953125 -13.507812 1.953125 -16.03125 C 1.953125 -18.539062 2.359375 -20.804688 3.171875 -22.828125 C 3.984375 -24.847656 5.128906 -26.578125 6.609375 -28.015625 C 8.085938 -29.453125 9.820312 -30.550781 11.8125 -31.3125 C 13.8125 -32.082031 15.984375 -32.46875 18.328125 -32.46875 C 20.679688 -32.46875 22.847656 -32.082031 24.828125 -31.3125 C 26.816406 -30.550781 28.550781 -29.453125 30.03125 -28.015625 C 31.507812 -26.578125 32.65625 -24.847656 33.46875 -22.828125 C 34.28125 -20.804688 34.6875 -18.539062 34.6875 -16.03125 C 34.6875 -13.507812 34.28125 -11.238281 33.46875 -9.21875 C 32.65625 -7.195312 31.507812 -5.460938 30.03125 -4.015625 C 28.550781 -2.578125 26.816406 -1.472656 24.828125 -0.703125 C 22.847656 0.0546875 20.679688 0.4375 18.328125 0.4375 Z M 18.328125 -5.65625 C 19.703125 -5.65625 20.984375 -5.890625 22.171875 -6.359375 C 23.359375 -6.828125 24.390625 -7.507812 25.265625 -8.40625 C 26.148438 -9.300781 26.835938 -10.390625 27.328125 -11.671875 C 27.828125 -12.953125 28.078125 -14.40625 28.078125 -16.03125 C 28.078125 -17.65625 27.828125 -19.101562 27.328125 -20.375 C 26.835938 -21.644531 26.148438 -22.722656 25.265625 -23.609375 C 24.390625 -24.503906 23.359375 -25.1875 22.171875 -25.65625 C 20.984375 -26.125 19.703125 -26.359375 18.328125 -26.359375 C 16.953125 -26.359375 15.671875 -26.125 14.484375 -25.65625 C 13.296875 -25.1875 12.257812 -24.503906 11.375 -23.609375 C 10.5 -22.722656 9.8125 -21.644531 9.3125 -20.375 C 8.820312 -19.101562 8.578125 -17.65625 8.578125 -16.03125 C 8.578125 -14.40625 8.820312 -12.953125 9.3125 -11.671875 C 9.8125 -10.390625 10.5 -9.300781 11.375 -8.40625 C 12.257812 -7.507812 13.296875 -6.828125 14.484375 -6.359375 C 15.671875 -5.890625 16.953125 -5.65625 18.328125 -5.65625 Z M 18.328125 -5.65625 "/></g></g></g><g fill="#3e614c" fill-opacity="1"><g transform="translate(169.04354, 45.640499)"><g><path d="M 26.015625 -32.03125 L 32.640625 -32.03125 L 32.640625 0 L 24.953125 0 L 10.765625 -22.890625 L 10.765625 0 L 4.140625 0 L 4.140625 -32.03125 L 11.75 -32.03125 L 26.015625 -9.265625 Z M 26.015625 -32.03125 "/></g></g></g><g fill="#3e614c" fill-opacity="1"><g transform="translate(210.916848, 45.640499)"><g/></g></g><g fill="#3e614c" fill-opacity="1"><g transform="translate(227.790835, 45.640499)"><g><path d="M 22.671875 -30.5625 C 24.160156 -29.757812 25.25 -28.65625 25.9375 -27.25 C 26.625 -25.851562 26.96875 -24.203125 26.96875 -22.296875 C 26.96875 -20.378906 26.628906 -18.628906 25.953125 -17.046875 C 25.285156 -15.460938 24.207031 -14.210938 22.71875 -13.296875 C 21.84375 -12.703125 20.773438 -12.25 19.515625 -11.9375 C 18.253906 -11.632812 16.640625 -11.484375 14.671875 -11.484375 L 10.796875 -11.484375 L 10.796875 0 L 4.140625 0 L 4.140625 -32.03125 L 14.671875 -32.03125 C 16.609375 -32.03125 18.207031 -31.898438 19.46875 -31.640625 C 20.726562 -31.390625 21.796875 -31.03125 22.671875 -30.5625 Z M 18.90625 -18.15625 C 19.332031 -18.519531 19.664062 -19 19.90625 -19.59375 C 20.15625 -20.195312 20.28125 -20.957031 20.28125 -21.875 C 20.28125 -22.78125 20.144531 -23.523438 19.875 -24.109375 C 19.613281 -24.691406 19.269531 -25.148438 18.84375 -25.484375 C 18.28125 -25.910156 17.582031 -26.179688 16.75 -26.296875 C 15.925781 -26.410156 14.921875 -26.46875 13.734375 -26.46875 L 10.796875 -26.46875 L 10.796875 -17.046875 L 13.734375 -17.046875 C 14.960938 -17.046875 15.992188 -17.113281 16.828125 -17.25 C 17.660156 -17.394531 18.351562 -17.695312 18.90625 -18.15625 Z M 18.90625 -18.15625 "/></g></g></g><g fill="#3e614c" fill-opacity="1"><g transform="translate(261.331036, 45.640499)"><g><path d="M 10.796875 -5.875 L 20.828125 -5.875 L 20.828125 0 L 4.140625 0 L 4.140625 -32.03125 L 10.796875 -32.03125 Z M 10.796875 -5.875 "/></g></g></g><g fill="#3e614c" fill-opacity="1"><g transform="translate(288.178157, 45.640499)"><g><path d="M 25.578125 0 L 23.25 -6.609375 L 9.796875 -6.609375 L 7.46875 0 L 0.671875 0 L 12.453125 -32.03125 L 20.59375 -32.03125 L 32.375 0 Z M 11.75 -12.171875 L 21.296875 -12.171875 L 16.53125 -25.75 Z M 11.75 -12.171875 "/></g></g></g><g fill="#3e614c" fill-opacity="1"><g transform="translate(326.306, 45.640499)"><g><path d="M 26.015625 -32.03125 L 32.640625 -32.03125 L 32.640625 0 L 24.953125 0 L 10.765625 -22.890625 L 10.765625 0 L 4.140625 0 L 4.140625 -32.03125 L 11.75 -32.03125 L 26.015625 -9.265625 Z M 26.015625 -32.03125 "/></g></g></g><g fill="#3e614c" fill-opacity="1"><g transform="translate(368.179308, 45.640499)"><g/></g></g><g fill="#3e614c" fill-opacity="1"><g transform="translate(385.053296, 45.640499)"><g><path d="M 21.0625 0 L 13.609375 -11.8125 L 10.796875 -11.8125 L 10.796875 0 L 4.140625 0 L 4.140625 -32.03125 L 14.671875 -32.03125 C 16.035156 -32.03125 17.195312 -31.972656 18.15625 -31.859375 C 19.125 -31.742188 19.960938 -31.585938 20.671875 -31.390625 C 21.390625 -31.191406 22.019531 -30.953125 22.5625 -30.671875 C 24.125 -29.847656 25.25 -28.695312 25.9375 -27.21875 C 26.625 -25.75 26.96875 -24.0625 26.96875 -22.15625 C 26.96875 -20.15625 26.617188 -18.382812 25.921875 -16.84375 C 25.222656 -15.3125 24.054688 -14.113281 22.421875 -13.25 C 21.835938 -12.925781 21.160156 -12.65625 20.390625 -12.4375 L 28.921875 0 Z M 10.796875 -26.46875 L 10.796875 -17.046875 L 13.734375 -17.046875 C 15.003906 -17.046875 16.015625 -17.09375 16.765625 -17.1875 C 17.523438 -17.28125 18.148438 -17.5 18.640625 -17.84375 C 19.734375 -18.59375 20.28125 -19.894531 20.28125 -21.75 C 20.28125 -22.644531 20.144531 -23.40625 19.875 -24.03125 C 19.613281 -24.664062 19.242188 -25.164062 18.765625 -25.53125 C 18.265625 -25.914062 17.625 -26.164062 16.84375 -26.28125 C 16.0625 -26.40625 15.023438 -26.46875 13.734375 -26.46875 Z M 10.796875 -26.46875 "/></g></g></g><g fill="#3e614c" fill-opacity="1"><g transform="translate(420.255686, 45.640499)"><g><path d="M 22.71875 -26.171875 L 10.84375 -26.171875 L 10.84375 -18.90625 L 21.359375 -18.90625 L 21.359375 -13.125 L 10.84375 -13.125 L 10.84375 -5.875 L 22.71875 -5.875 L 22.71875 0 L 4.140625 0 L 4.140625 -32.03125 L 22.71875 -32.03125 Z M 22.71875 -26.171875 "/></g></g></g><g fill="#3e614c" fill-opacity="1"><g transform="translate(450.759623, 45.640499)"><g><path d="M 24.515625 -32.03125 L 31.578125 -32.03125 L 19.75 0 L 12.4375 0 L 0.671875 -32.03125 L 7.71875 -32.03125 L 16.109375 -7.75 Z M 24.515625 -32.03125 "/></g></g></g><g fill="#3e614c" fill-opacity="1"><g transform="translate(488.089615, 45.640499)"><g><path d="M 4.140625 0 L 4.140625 -32.03125 L 10.796875 -32.03125 L 10.796875 0 Z M 4.140625 0 "/></g></g></g><g fill="#3e614c" fill-opacity="1"><g transform="translate(508.088517, 45.640499)"><g><path d="M 22.71875 -26.171875 L 10.84375 -26.171875 L 10.84375 -18.90625 L 21.359375 -18.90625 L 21.359375 -13.125 L 10.84375 -13.125 L 10.84375 -5.875 L 22.71875 -5.875 L 22.71875 0 L 4.140625 0 L 4.140625 -32.03125 L 22.71875 -32.03125 Z M 22.71875 -26.171875 "/></g></g></g><g fill="#3e614c" fill-opacity="1"><g transform="translate(538.592454, 45.640499)"><g><path d="M 9.359375 0 L 0.96875 -32.03125 L 7.890625 -32.03125 L 14.140625 -7.78125 L 21.296875 -32.03125 L 26.90625 -32.03125 L 34.015625 -7.78125 L 40.34375 -32.03125 L 47.234375 -32.03125 L 38.859375 0 L 30.296875 0 L 24.09375 -19.796875 L 17.90625 0 Z M 9.359375 0 "/></g></g></g></g></g></g></g></svg>